<svg width="959" height="180" viewBox="0 0 959 180" fill="none" xmlns="http://www.w3.org/2000/svg">
<path d="M32.49 174.25V79.72H0V49.97H97.75V79.72H65.2599V174.25H32.5H32.49Z" fill="#1E1E1E"/>
<path d="M112.77 174.25V49.98H145V109.3L138.18 101.24C142.08 96.58 146.71 92.81 152.08 89.95C157.45 87.09 163.41 85.66 169.96 85.66C178.64 85.66 185.82 87.36 191.52 90.75C197.22 94.14 201.49 98.63 204.36 104.21C207.22 109.79 208.65 115.82 208.65 122.32V174.26H176.42V131.35C176.42 126.45 175.03 122.47 172.26 119.4C169.48 116.33 165.62 114.8 160.66 114.8C157.24 114.74 154.36 115.39 152.03 116.75C149.7 118.11 147.94 120.08 146.76 122.68C145.58 125.28 144.99 128.34 144.99 131.89V174.27H112.76L112.77 174.25Z" fill="#1E1E1E"/>
<path d="M364.69 174.19V0H410.11L476.25 99.9V0H520.43V174.19H475.01L408.87 72.35V174.19H364.69Z" fill="#1E1E1E"/>
<path d="M547.17 174.19V0H592.84V174.19H547.17Z" fill="#1E1E1E"/>
<path d="M271.26 179.15C261.34 179.15 252.67 177.19 245.25 173.28C237.83 169.37 232.06 163.9 227.95 156.88C223.84 149.85 221.79 141.64 221.79 132.23C221.79 125.38 222.99 119.1 225.4 113.4C227.81 107.7 231.21 102.79 235.6 98.65C239.99 94.51 245.18 91.31 251.16 89.04C257.14 86.77 263.73 85.64 270.92 85.64C278.97 85.64 286.12 87.06 292.38 89.89C298.64 92.72 303.81 96.68 307.89 101.75C311.97 106.82 314.75 112.77 316.22 119.6C317.69 126.43 317.61 133.87 315.96 141.91H252.21C252.44 144.23 253.41 146.27 255.14 148.03C256.87 149.79 259.18 151.16 262.07 152.15C264.96 153.14 268.25 153.64 271.93 153.64C277.31 153.64 282.33 153.02 286.98 151.77C291.63 150.52 296.24 148.54 300.84 145.82L310.7 168.26C308.09 170.24 304.55 172.06 300.07 173.7C295.59 175.34 290.8 176.66 285.7 177.65C280.6 178.64 275.78 179.14 271.25 179.14L271.26 179.15Z" fill="#1E1E1E"/>
<path d="M619.65 173.96V0.230011H665.32V132.27H733.08V173.97H619.65V173.96Z" fill="#1E1E1E"/>
<path d="M759.45 173.96V0.230011H884.91V39.69H805.12V67.12H871.26V103.35H805.12V134H885.91V173.96H759.46H759.45Z" fill="#1E1E1E"/>
<path d="M936.54 173.95C948.85 173.95 958.83 163.97 958.83 151.66C958.83 139.35 948.85 129.37 936.54 129.37C924.23 129.37 914.25 139.35 914.25 151.66C914.25 163.97 924.23 173.95 936.54 173.95Z" fill="#3985FF"/>
</svg>
